<svg width="16" height="16" fill="none" xmlns="http://www.w3.org/2000/svg"><path fill-rule="evenodd" clip-rule="evenodd" d="M4.8 12.7h1.3c.4 0 .5-.1.5-.6v-2c0-.4.2-.5.5-.5h2c.3 0 .5.1.5.5v2c0 .5.1.6.6.6h1.1v.1l-.2.3-2.6 2.6c-.4.4-.5.4-.9 0l-2.5-2.5-.3-.4v-.1zM11.4 3.3h-1.2c-.4 0-.6.2-.6.6v2c0 .3-.1.4-.5.4H7.3c-.5 0-.6 0-.6-.5V3.9c0-.4-.1-.5-.6-.6H4.8L5 3 7.7.2c.3-.2.5-.3.8 0L11.2 3l.2.2v.1zM3.2 4.8v6.6l-.3-.3L.3 8.5c-.4-.3-.4-.5 0-.8L2.8 5l.4-.3zM12.8 11.3V4.8l.3.2 2.7 2.7c.3.2.3.4 0 .7L13 11l-.3.2z" fill="#F12730"/></svg>